# xmcd
# 
# Track frame offsets:
#     150
#     17287
#     32982
#     53192
#     66939
#     83413
#     101855
#     118426
#     136173
#     149262
# 
# Disc length: 2241
# 
# Revision: 0
# Processed by: cddbd v1.5.2PL0 Copyright (c) Steve Scherf et al.
# Submitted via: fre:ac v1.0.31
# 
DISCID=8808bf0a
DTITLE=LP - Lost on You
DYEAR=0
DGENRE=
TTITLE0=Muddy Waters
TTITLE1=No Witness
TTITLE2=Lost on You
TTITLE3=Up Against Me
TTITLE4=Tightrope
TTITLE5=Other People
TTITLE6=Into the Wild
TTITLE7=Strange
TTITLE8=Death Valley
TTITLE9=You Want It All
EXTD=
EXTT0=
EXTT1=
EXTT2=
EXTT3=
EXTT4=
EXTT5=
EXTT6=
EXTT7=
EXTT8=
EXTT9=
PLAYORDER=
